<svg width="72" height="72" fill="none" xmlns="http://www.w3.org/2000/svg"><g clip-path="url(#clip0_2553_17)" fill="#1AA090"><path d="M63 25.847V8.55a6.28 6.28 0 00-6.288-6.3H39.425a4.306 4.306 0 00-3.024 1.25L1.84 38.05a6.309 6.309 0 000 8.908L18.294 63.41a6.305 6.305 0 008.905 0l34.55-34.54A4.303 4.303 0 0063 25.848zM49.5 20.25a4.5 4.5 0 110-9 4.5 4.5 0 010 9z"/><path d="M69.75 9a2.25 2.25 0 00-2.25 2.25v17.911L30.754 65.91a2.25 2.25 0 103.18 3.181l36.844-36.843A4.197 4.197 0 0072 29.25v-18A2.25 2.25 0 0069.75 9z"/></g><defs><clipPath id="clip0_2553_17"><path fill="#fff" d="M0 0h72v72H0z"/></clipPath></defs></svg>