<svg width="72" height="72" viewBox="0 0 241 241" fill="none" xmlns="http://www.w3.org/2000/svg"><path d="M137.383 159.582l68.173 68.173m-45.974-90.372l68.173 68.173" stroke="#1AA090" stroke-width="16"/><path d="M227.755 205.557a15.693 15.693 0 010 22.198m-22.198 0a15.694 15.694 0 0022.198 0M78.635 8a70.64 70.64 0 0165.259 43.604 70.632 70.632 0 01-15.312 76.978 70.646 70.646 0 01-49.947 20.689A70.635 70.635 0 1178.635 8zm58.748 151.582l22.198-22.199m-11.099 11.099l-19.899-19.899m27.748 49.946l22.198-22.198M78.636 39.394a39.242 39.242 0 0139.242 39.241" stroke="#1AA090" stroke-width="16" stroke-linecap="round" stroke-linejoin="round"/></svg>